HIERARCHY
ROOT Hips
{
  OFFSET -187.679 86.5976 -156.378
  CHANNELS 6 Xposition Yposition Zposition Zrotation Xrotation Yrotation
  JOINT LeftUpLeg
  {
    OFFSET 8.64259 1.95398 -2.38835
    CHANNELS 3 Zrotation Xrotation Yrotation
    JOINT LeftLeg
    {
      OFFSET 43.7702 0 0
      CHANNELS 3 Zrotation Xrotation Yrotation
      JOINT LeftFoot
      {
        OFFSET 40.6238 0 0
        CHANNELS 3 Zrotation Xrotation Yrotation
        JOINT LeftToeBase
        {
          OFFSET 12.7242 0 0
          CHANNELS 3 Zrotation Xrotation Yrotation
          End Site
          {
            OFFSET 0 0 0
          }
        }
      }
    }
  }
  JOINT RightUpLeg
  {
    OFFSET -8.2249 1.95398 -2.59336
    CHANNELS 3 Zrotation Xrotation Yrotation
    JOINT RightLeg
    {
      OFFSET 43.5653 0 0
      CHANNELS 3 Zrotation Xrotation Yrotation
      JOINT RightFoot
      {
        OFFSET 40.6238 0 0
        CHANNELS 3 Zrotation Xrotation Yrotation
        JOINT RightToeBase
        {
          OFFSET 12.7242 0 0
          CHANNELS 3 Zrotation Xrotation Yrotation
          End Site
          {
            OFFSET 0 0 0
          }
        }
      }
    }
  }
  JOINT Spine
  {
    OFFSET 0.165834 0.87714 6.61349
    CHANNELS 3 Zrotation Xrotation Yrotation
    JOINT Spine1
    {
      OFFSET 7.38963 1.71661e-005 0
      CHANNELS 3 Zrotation Xrotation Yrotation
      JOINT Spine2
      {
        OFFSET 11.9445 1.14441e-005 0
        CHANNELS 3 Zrotation Xrotation Yrotation
        JOINT Spine3
        {
          OFFSET 14.7254 4.19617e-005 0
          CHANNELS 3 Zrotation Xrotation Yrotation
          JOINT Spine4
          {
            OFFSET 10.9679 0 0
            CHANNELS 3 Zrotation Xrotation Yrotation
            JOINT RightShoulder
            {
              OFFSET 2.46616 -1.6653 3.69651
              CHANNELS 3 Zrotation Xrotation Yrotation
              JOINT RightArm
              {
                OFFSET 13.0012 0 0
                CHANNELS 3 Zrotation Xrotation Yrotation
                JOINT RightForeArm
                {
                  OFFSET 28.7848 1.52588e-005 0
                  CHANNELS 3 Zrotation Xrotation Yrotation
                  JOINT RightHand
                  {
                    OFFSET 26.5688 1.52588e-005 0
                    CHANNELS 3 Zrotation Xrotation Yrotation
                    End Site
                    {
                      OFFSET 0 0 0
                    }
                  }
                }
              }
            }
            JOINT LeftShoulder
            {
              OFFSET 2.38034 -1.29275 -3.7523
              CHANNELS 3 Zrotation Xrotation Yrotation
              JOINT LeftArm
              {
                OFFSET 16.3182 6.10352e-005 0
                CHANNELS 3 Zrotation Xrotation Yrotation
                JOINT LeftForeArm
                {
                  OFFSET 27.0901 0 0
                  CHANNELS 3 Zrotation Xrotation Yrotation
                  JOINT LeftHand
                  {
                    OFFSET 24.5451 1.52588e-005 0
                    CHANNELS 3 Zrotation Xrotation Yrotation
                    End Site
                    {
                      OFFSET 0 0 0
                    }
                  }
                }
              }
            }
            JOINT Neck
            {
              OFFSET 5.0226 -0.0266342 0
              CHANNELS 3 Zrotation Xrotation Yrotation
              JOINT Head
              {
                OFFSET 6.69363 2.86102e-005 0
                CHANNELS 3 Zrotation Xrotation Yrotation
                End Site
                {
                  OFFSET 0 0 0
                }
              }
            }
          }
        }
      }
    }
  }
}
MOTION
Frames:	18
Frame Time:	0.0416667
5.98135 101.552 28.3967 -139.556 -82.9403 -140.406 -174.853 -4.88611 88.674 -16.2824 18.0189 8.23207 70.9638 5.52567 0.894374 16.9627 -5.69563 2.16937 172.293 -3.50826 86.8897 -17.1457 1.78811 1.62445 67.8019 -3.57562 2.74619 27.0914 -1.28847 3.39467 0.0354786 7.45535 -89.7931 11.9627 0.168137 0.394459 0.291726 0.185328 0.386664 -22.243 0.0418037 0.426756 -2.23032 0.0418074 0.42675 86.5878 -49.81 -105.864 26.4377 -30.1249 -15.5087 -15.8695 -19.6721 -17.4641 -11.064 -0.140128 -3.66466 -88.2995 -45.4773 80.6061 -28.8406 29.6615 -8.04407 10.0878 -2.44485 -16.3704 -1.58915 -0.0410539 2.48915 11.3903 0.599142 -2.51646 2.78394 1.31415 2.79221 
5.97612 101.515 28.3808 -138.323 -82.876 -139.123 -175.085 -4.98784 88.5378 -16.1488 17.2258 8.49938 72.1964 5.70598 -0.602466 14.8806 -7.99653 4.98912 172.497 -3.27671 86.9896 -17.3021 0.286771 1.34314 67.3071 -3.39259 2.18219 27.0485 -1.07934 2.6832 0.124034 7.43767 -89.8506 11.9981 0.317108 0.263583 0.327165 0.328404 0.249365 -22.2079 0.223233 0.3467 -2.19529 0.223231 0.3467 87.306 -49.2215 -104.941 26.6521 -30.1896 -14.7252 -16.856 -21.3007 -19.2602 -11.6395 -0.280433 -2.25918 -89.0988 -46.3475 79.5381 -27.9993 29.8664 -8.29292 9.84662 -2.80935 -15.8643 -0.846894 0.00411503 2.72342 10.7735 0.558478 -1.81335 3.68608 1.09071 2.24436 
5.96853 101.509 28.3065 -133.952 -82.69 -134.502 -174.943 -4.59097 88.7773 -16.3545 16.8217 8.31622 72.4216 5.77728 -0.477926 14.9778 -8.01645 5.11564 172.831 -3.02313 87.376 -17.1945 0.144701 1.17185 67.4849 -3.49769 1.74738 26.5061 -1.52504 3.78797 0.232664 7.40643 -89.9106 12.0608 0.504759 0.122996 0.389898 0.509689 0.100655 -22.1459 0.444457 0.269015 -2.13321 0.44446 0.269017 87.8275 -48.8664 -104.241 27.0731 -29.5777 -15.364 -16.3964 -22.3464 -17.8771 -10.5757 -0.308028 -1.68371 -89.5995 -46.7089 78.8404 -27.724 29.1437 -8.44997 9.89573 -2.55738 -15.3074 1.35267 0.152459 3.10349 10.3744 0.331696 -1.83422 4.00817 0.911476 2.86897 
5.9925 101.513 28.2026 -134.382 -82.7286 -135.077 -174.948 -4.50724 88.679 -16.475 16.978 8.24306 72.3972 5.76824 -0.455041 14.8961 -7.8411 4.68162 172.756 -2.89938 87.23 -17.2832 0.11116 1.16276 67.4718 -3.4933 1.88349 26.6798 -1.35739 3.3616 0.217131 7.41027 -89.9043 12.0531 0.476875 0.138698 0.382235 0.482517 0.117575 -22.1534 0.413139 0.275607 -2.14077 0.413143 0.275604 87.7603 -48.7854 -104.367 26.9883 -29.8567 -15.3042 -16.4006 -21.9548 -18.0186 -10.4984 -0.304417 -1.69314 -89.5835 -46.8247 78.8912 -27.4145 28.658 -8.39184 10.0994 -2.08353 -15.3525 4.95763 0.495786 4.88878 10.5975 0.431593 -1.47745 3.48096 0.887142 2.33062 
6.02325 101.517 28.1658 -134.383 -82.6083 -135.113 -175.004 -4.64953 88.5753 -16.3669 16.9417 8.3025 72.3096 5.78407 -0.265386 14.8214 -7.87641 4.68111 172.845 -2.76715 87.21 -17.7267 0.391449 1.0545 67.0219 -3.28094 2.75563 27.5028 -0.861315 2.22791 0.226925 7.41835 -89.9126 12.037 0.492423 0.120531 0.36614 0.497254 0.0987355 -22.1696 0.433428 0.262956 -2.15693 0.433434 0.262953 87.8138 -48.6121 -104.333 27.1665 -29.9697 -15.2267 -16.2651 -21.5239 -17.866 -10.1761 -0.277608 -1.90463 -89.667 -46.873 78.7727 -27.1387 27.9941 -8.47787 10.2429 -1.44678 -15.0645 9.49586 1.04201 6.63977 10.7673 0.423993 -1.37572 3.13752 0.843209 2.17304 
6.09714 101.506 28.141 -134.467 -82.7167 -135.212 -175.108 -4.48122 88.5071 -16.567 16.7232 8.38601 72.5887 5.76914 -0.75304 14.6531 -7.98592 4.73964 172.719 -2.74596 87.1339 -17.6188 0.0433365 1.14522 67.47 -3.41801 1.81874 27.4111 -1.04571 2.78616 0.194992 7.38193 -89.9011 12.1098 0.43443 0.149426 0.438935 0.440592 0.130159 -22.0966 0.369443 0.273085 -2.08396 0.369437 0.273081 87.5934 -48.6345 -104.667 27.397 -29.9889 -14.8302 -16.2277 -21.4541 -17.8777 -10.8664 -0.259337 -2.31041 -89.4213 -46.5082 79.0719 -27.5593 26.6905 -8.18386 10.5469 -0.264044 -14.9162 14.0974 1.76558 8.55807 10.3443 0.461946 -1.67507 3.3066 0.96258 2.46915 
6.06896 101.508 28.1343 -132.681 -82.6591 -133.115 -174.933 -4.19971 88.8366 -16.7736 16.7555 8.27849 72.4823 5.77224 -0.461486 15.0293 -7.89916 4.92857 172.937 -2.73575 87.4732 -17.449 0.22422 1.15047 67.4102 -3.4232 2.10521 26.7547 -1.23515 3.01754 0.204866 7.36925 -89.9368 12.1353 0.437198 0.0778384 0.464408 0.440202 0.0585186 -22.0712 0.393586 0.205635 -2.05858 0.393591 0.20564 87.4433 -48.6501 -104.893 27.4794 -29.7477 -14.8099 -16.0986 -21.5621 -17.5354 -10.0324 -0.248359 -2.21516 -89.3432 -46.4825 79.1878 -27.5416 25.1328 -8.23591 10.8904 1.55374 -14.8122 18.7813 2.64075 10.3341 10.2563 0.451275 -1.69494 3.42349 0.961493 2.53386 
5.97972 101.513 28.0642 -131.55 -82.773 -132.066 -174.949 -3.9753 88.8456 -16.7467 16.7301 8.22597 72.5003 5.76878 -0.530544 14.803 -7.84334 4.59718 173.057 -2.47516 87.5534 -17.4636 0.269593 1.08646 66.9184 -3.27545 2.40343 27.361 -0.954187 2.45435 0.208917 7.35761 -89.9301 12.1586 0.448415 0.0897314 0.48768 0.451932 0.0698937 -22.048 0.400709 0.220348 -2.03532 0.400716 0.220346 87.5428 -48.6789 -104.732 27.2812 -30.0163 -14.9011 -16.0658 -21.488 -17.5851 -9.95571 -0.247986 -2.19533 -89.3753 -46.3531 79.109 -27.3323 24.2177 -8.53592 10.8868 2.85456 -14.5414 22.9584 3.46978 11.5427 10.6805 0.431044 -1.68303 2.87065 0.933958 2.56138 
6.01142 101.511 28.1654 -132.757 -82.5924 -133.343 -175.086 -4.41351 88.6532 -16.4906 16.0843 8.39493 72.4969 5.63677 -0.920406 14.9155 -7.51979 4.04812 172.859 -2.84131 87.3343 -17.354 0.38833 1.13511 68.0254 -3.64895 2.12744 26.0512 -1.42982 3.22228 0.212305 7.38084 -89.925 12.1121 0.457546 0.0991473 0.441186 0.461458 0.0789076 -22.0945 0.40659 0.232081 -2.08182 0.406582 0.232065 87.7054 -48.5654 -104.513 27.4712 -30.004 -14.8886 -16.0954 -21.6425 -17.6145 -10.5596 -0.272945 -2.07444 -89.504 -46.2531 78.8866 -27.2652 23.4229 -8.56243 10.8959 3.99663 -14.4458 26.0618 4.09792 12.2226 10.4411 0.327997 -1.92786 3.24462 0.926841 3.16752 
5.99066 101.496 28.1911 -131.899 -82.6689 -132.628 -175.167 -4.41118 88.4971 -16.3271 16.3112 8.41173 72.4105 5.66288 -0.791338 15.2333 -7.71673 4.75559 172.831 -2.63044 87.226 -17.4093 -0.0157271 1.10384 67.125 -3.35085 2.40579 27.3901 -0.888399 2.24589 0.214564 7.36887 -89.9266 12.136 0.461312 0.0955015 0.465139 0.465058 0.0751002 -22.0705 0.411275 0.229727 -2.05788 0.411277 0.229727 87.7379 -48.548 -104.469 27.383 -29.8998 -14.9168 -16.1084 -21.4877 -17.6145 -10.6906 -0.276775 -2.06804 -89.5941 -46.5071 78.8033 -26.9228 23.1865 -8.64137 10.75 4.09961 -14.2853 27.3161 4.40723 12.6547 10.4641 0.472934 -1.67688 3.316 1.00984 3.10543 
5.95904 101.501 28.268 -133.067 -82.7502 -133.891 -175.118 -4.54602 88.4698 -16.1557 16.5556 8.32369 72.2315 5.63875 -0.711811 15.3937 -7.84257 5.16977 172.621 -2.73229 87.0444 -17.4852 0.0888156 1.23003 67.6039 -3.48469 2.11499 26.7303 -1.30835 3.23715 0.20156 7.37579 -89.9223 12.1222 0.437443 0.106719 0.451275 0.441721 0.0873555 -22.0843 0.385143 0.233251 -2.07169 0.385148 0.233256 87.7272 -48.6186 -104.465 27.291 -29.8302 -14.842 -16.3709 -21.8443 -17.9463 -10.9731 -0.32362 -1.62851 -89.6333 -46.6249 78.7689 -26.783 23.5277 -8.51119 10.7891 3.99056 -14.5689 26.927 4.41915 12.9381 10.8532 0.392772 -1.48844 2.64565 0.851485 2.61444 
5.86644 101.545 28.2911 -133.659 -82.7932 -134.444 -174.941 -4.59538 88.684 -16.1532 16.9328 8.19242 72.3032 5.73016 -0.592399 14.8914 -7.93124 4.86054 172.77 -2.83311 87.2291 -17.4656 0.3638 1.16747 67.4417 -3.42664 2.19652 26.5932 -1.28031 3.0658 0.206882 7.37478 -89.9213 12.1241 0.448458 0.107505 0.453254 0.452756 0.0876445 -22.0824 0.395407 0.237311 -2.06973 0.39542 0.237311 87.5625 -48.8432 -104.655 27.1023 -29.9505 -14.6897 -16.6505 -21.9794 -18.4378 -10.5266 -0.307655 -1.68472 -89.5874 -46.4459 78.8001 -26.987 24.4716 -8.47165 10.673 2.82672 -14.3661 24.309 3.73898 11.8564 10.7048 0.265002 -1.75901 2.79232 0.798281 2.75542 
5.88538 101.527 28.329 -135.686 -83.0392 -136.483 -175.022 -4.50131 88.6491 -16.4229 17.245 8.33715 72.3905 5.83106 -0.459501 14.9972 -7.82741 4.75186 172.628 -2.89644 87.1531 -17.4337 0.503566 1.33807 67.2923 -3.37504 2.15288 27.4291 -0.989235 2.61062 0.178803 7.38517 -89.9431 12.1035 0.382362 0.0713348 0.432576 0.385136 0.0544296 -22.1029 0.343241 0.182946 -2.09029 0.343253 0.182958 87.5684 -48.8054 -104.657 27.0545 -29.738 -14.7743 -16.3222 -21.2141 -18.0149 -12.1563 -0.20184 -3.1722 -89.7926 -46.7804 78.5577 -27.0459 25.7117 -8.42138 10.5674 1.05394 -14.2641 18.6993 2.51006 9.70824 10.7443 0.340516 -1.33951 2.8732 0.761268 2.43304 
5.94235 101.5 28.4786 -135.543 -82.913 -136.459 -174.988 -4.51297 88.5669 -16.6844 16.9813 8.16642 72.5976 5.87325 -0.682265 15.0885 -7.79161 4.7673 172.5 -2.99175 86.9304 -17.4456 0.0211293 1.29335 67.8551 -3.54704 1.79869 26.4416 -1.35265 3.20768 0.200794 7.42005 -89.9466 12.0337 0.424454 0.0601237 0.362841 0.426685 0.0413727 -22.1728 0.386759 0.184915 -2.16013 0.386758 0.184904 87.6558 -48.8146 -104.52 26.8366 -30.425 -15.0356 -15.9224 -19.7799 -17.6777 -9.96805 -0.140168 -3.50263 -89.8837 -46.9025 78.4445 -27.2037 28.1771 -8.36354 10.0285 -1.75155 -14.8668 9.89912 0.99826 5.55796 10.8884 0.421491 -1.20492 3.03055 0.825986 2.6803 
6.0965 101.488 28.4412 -138.953 -83.2127 -140.194 -174.857 -3.94142 88.4676 -17.6758 17.657 7.69222 72.6669 6.08179 -0.40765 15.2019 -7.53884 4.36214 172.172 -2.7473 86.4619 -18.0178 0.240671 1.41085 67.7154 -3.42261 2.0974 27.0078 -1.11175 2.76455 0.157194 7.44637 -89.9378 11.981 0.341922 0.0869423 0.31009 0.345415 0.0718033 -22.2253 0.299977 0.185683 -2.21269 0.299982 0.185682 87.7898 -48.7355 -104.336 26.8492 -30.096 -15.2108 -16.0308 -20.2286 -17.7668 -11.2476 -0.0898112 -4.22764 -89.838 -46.829 78.4984 -27.4544 30.8863 -8.30848 8.97189 -4.90776 -15.8212 0.747706 0.0245967 0.666428 11.159 0.691657 -0.776907 2.66366 0.986703 2.77454 
6.23475 101.439 28.5073 -140.921 -83.0039 -142.432 -174.635 -3.46887 88.463 -19.1641 17.6978 7.0734 73.1021 6.34574 -0.610365 15.3436 -7.6493 4.72545 171.978 -2.80327 86.0449 -18.6125 0.228046 1.32115 68.1478 -3.43663 2.17114 26.6938 -1.1985 2.86081 0.149797 7.46767 -89.9824 11.9385 0.306165 0.00211936 0.267618 0.305968 -0.0113683 -22.2678 0.291377 0.0940392 -2.25516 0.291376 0.0940324 88.137 -48.3449 -103.908 26.9739 -29.8611 -15.5132 -16.013 -21.0682 -17.6325 -12.0121 -0.129355 -3.88039 -89.8189 -47.1315 78.5965 -27.4543 31.0179 -8.15334 8.69925 -5.70085 -16.1279 -0.0083716 0.00402205 0.249115 10.5874 1.25253 1.07695 2.81612 1.07471 2.11319 
6.40591 101.341 28.5584 -142.791 -82.5831 -144.317 -174.098 -2.86033 88.9385 -21.2704 18.0176 6.11452 74.1382 7.01824 -0.618027 14.7581 -7.85788 4.58267 171.985 -2.99206 85.8838 -19.243 0.338368 1.16804 68.6015 -3.40662 2.37299 26.821 -1.16981 2.84291 0.152114 7.50043 -90.0818 11.8732 0.264018 -0.191398 0.202272 0.25534 -0.20284 -22.3331 0.309319 -0.103205 -2.32041 0.30933 -0.103201 88.1879 -48.0271 -103.917 26.8417 -29.8393 -15.5252 -15.8805 -20.8622 -17.3162 -12.1065 -0.107307 -4.10435 -89.8118 -47.8231 78.7623 -26.8338 31.1706 -7.90478 8.7856 -5.80444 -16.8871 0.0784406 0.0136074 0.501789 9.84061 1.89713 2.92894 2.90992 1.30844 2.33293 
6.76732 101.098 28.6591 -144.185 -82.0501 -145.771 -174.02 -2.15712 89.0469 -23.7192 17.2695 5.31882 74.9934 7.64284 -0.912091 15.4657 -7.18894 3.89849 171.405 -3.03738 85.1357 -20.1363 -0.597676 1.40909 69.2532 -3.39562 2.48105 27.1074 -1.06322 2.66435 0.187138 7.54316 -90.1447 11.788 0.304206 -0.321074 0.117092 0.289776 -0.334152 -22.4182 0.386631 -0.214804 -2.40553 0.386637 -0.214802 88.2891 -47.8931 -103.796 27.0252 -29.618 -15.3303 -16.1836 -21.0611 -17.8676 -11.9023 -0.096002 -4.19551 -89.3124 -46.843 79.3146 -28.0019 30.022 -7.93807 8.9022 -5.77695 -17.2291 -0.897769 -0.035456 -0.171937 9.18389 2.32577 4.41355 3.17731 1.45272 2.86562 
